<?xml version="1.0" standalone="no"?>
<!DOCTYPE svg PUBLIC "-//W3C//DTD SVG 20010904//EN"
 "http://www.w3.org/TR/2001/REC-SVG-20010904/DTD/svg10.dtd">
<svg version="1.0" xmlns="http://www.w3.org/2000/svg"
 width="500.000000pt" height="500.000000pt" viewBox="0 0 500.000000 500.000000"
 preserveAspectRatio="xMidYMid meet">

<g transform="translate(0.000000,500.000000) scale(0.100000,-0.100000)"
fill="#000000" stroke="none">
<path d="M2365 3504 c-83 -12 -188 -39 -255 -66 -72 -29 -195 -96 -188 -104 2
-2 53 21 113 51 291 145 605 149 892 10 270 -131 461 -364 540 -660 36 -138
39 -345 5 -478 -23 -93 -27 -122 -13 -97 50 90 64 427 24 575 -103 375 -375
647 -742 742 -94 24 -296 39 -376 27z"/>
<path d="M2491 2859 c-106 -21 -175 -90 -236 -238 l-38 -92 -27 70 c-56 143
-129 228 -215 250 -72 18 -82 13 -26 -15 66 -33 137 -125 180 -235 42 -106 50
-150 51 -260 0 -102 -8 -120 -55 -132 -11 -2 25 -5 80 -5 96 -1 99 -1 66 13
l-33 15 4 133 c4 121 7 140 39 222 39 103 97 195 144 231 24 18 50 26 97 31
59 5 66 4 96 -22 17 -15 32 -31 32 -36 0 -22 -195 -476 -213 -496 -11 -12 -29
-24 -41 -26 -11 -2 17 -4 64 -4 47 -1 77 1 68 4 -30 8 -30 39 1 114 l29 74
112 0 112 0 34 -95 c63 -176 153 -270 260 -270 29 0 56 4 59 10 3 6 -1 7 -10
4 -28 -11 -102 26 -144 71 -54 59 -87 128 -164 345 -83 233 -90 251 -123 289
-49 59 -98 71 -203 50z m238 -250 c22 -62 39 -115 37 -116 -2 -2 -46 -2 -98
-1 l-95 3 50 129 c35 90 52 124 58 114 5 -8 26 -66 48 -129z"/>
<path d="M1531 2817 c-22 -58 -41 -196 -41 -302 0 -407 221 -754 592 -930 223
-105 494 -123 733 -48 79 25 211 87 250 117 35 27 6 17 -69 -24 -178 -98 -385
-141 -574 -120 -139 15 -240 43 -348 95 -278 134 -465 365 -545 671 -33 125
-33 360 -1 478 21 77 23 116 3 63z"/>
</g>
</svg>
