<?xml version="1.0" standalone="no"?>
<!DOCTYPE svg PUBLIC "-//W3C//DTD SVG 20010904//EN"
 "http://www.w3.org/TR/2001/REC-SVG-20010904/DTD/svg10.dtd">
<svg version="1.0" xmlns="http://www.w3.org/2000/svg"
 width="700.000000pt" height="700.000000pt" viewBox="0 0 700.000000 700.000000"
 preserveAspectRatio="xMidYMid meet">
<metadata>
Created by potrace 1.14, written by Peter Selinger 2001-2017
</metadata>
<g transform="translate(0.000000,700.000000) scale(0.100000,-0.100000)"
fill="#000000" stroke="none">
<path d="M3225 4894 c-174 -31 -333 -89 -487 -177 -38 -21 -68 -43 -68 -48 0
-14 12 -11 45 12 112 76 350 166 514 193 120 20 347 21 469 1 125 -20 287 -74
405 -134 373 -190 649 -544 741 -951 49 -216 41 -498 -19 -696 -17 -56 -19
-78 -6 -70 11 7 45 136 62 236 19 108 16 354 -5 470 -35 194 -117 395 -229
558 -93 136 -185 232 -318 332 -196 147 -404 238 -634 275 -113 19 -363 18
-470 -1z"/>
<path d="M3500 4008 c-124 -20 -161 -37 -222 -100 -45 -45 -71 -85 -112 -171
-30 -62 -59 -129 -66 -150 -7 -22 -16 -35 -20 -30 -4 4 -22 46 -39 93 -83 222
-199 337 -351 347 l-65 4 50 -18 c128 -47 233 -187 311 -418 35 -104 38 -119
42 -263 5 -169 2 -179 -63 -207 -27 -12 -16 -13 105 -13 l135 -1 -41 19 c-23
10 -44 26 -48 35 -15 39 -6 270 14 353 47 198 157 396 258 465 40 28 154 46
206 33 28 -7 96 -62 96 -78 0 -5 -64 -163 -141 -349 -146 -350 -162 -379 -215
-379 -13 0 -24 -4 -24 -10 0 -6 43 -10 110 -10 109 0 131 6 88 25 -13 6 -24
18 -26 28 -2 10 15 67 39 127 l42 110 152 0 152 0 38 -107 c73 -211 159 -338
265 -394 35 -18 61 -23 117 -24 45 0 77 5 85 13 10 10 2 12 -37 12 -92 1 -157
46 -236 162 -54 79 -72 122 -180 425 -104 293 -135 364 -180 412 -62 64 -120
79 -239 59z m304 -365 l55 -163 -139 0 c-77 0 -140 3 -140 8 0 6 29 81 132
342 l10 25 13 -25 c7 -14 38 -98 69 -187z"/>
<path d="M2112 3903 c-39 -144 -47 -215 -47 -388 1 -121 6 -196 18 -259 90
-453 371 -819 782 -1021 211 -105 388 -145 631 -145 167 0 286 18 438 67 143
46 371 161 354 179 -4 3 -38 -13 -77 -35 -146 -86 -316 -147 -491 -177 -118
-20 -406 -14 -515 10 -279 63 -511 190 -710 390 -124 124 -192 218 -264 363
-154 308 -191 660 -105 990 27 106 27 103 15 103 -5 0 -18 -35 -29 -77z"/>
</g>
</svg>
